<svg xmlns="https://www.w3.org/2000/svg" viewBox="0 0 2048 2048"><path d="M 839.27272,1760.7272 C 803.33576,1724.7902 800,1709.0998 800,1576 c 0,-133.0999 3.33576,-148.7903 39.27272,-184.7273 C 875.2097,1355.3358 890.90011,1352 1024,1352 c 133.0999,0 148.7903,3.3358 184.7273,39.2727 35.9369,35.937 39.2727,51.6274 39.2727,184.7273 0,133.0998 -3.3358,148.7902 -39.2727,184.7272 C 1172.7903,1796.6643 1157.0999,1800 1024,1800 c -133.09989,0 -148.7903,-3.3357 -184.72728,-39.2728 z M 832,1176 C 804.54422,1148.5442 800,1122.6667 800,993.7725 800,778.31653 810.23554,768 1024,768 c 213.7645,0 224,10.31653 224,225.7725 0,205.7235 -8.8919,214.2275 -224,214.2275 -138.66667,0 -164.26667,-4.2667 -192,-32 z m 7.27272,-583.27272 C 803.16352,556.61806 800,541.37666 800,403.5163 800,267.4751 803.43224,250.35362 837.03122,218.78902 869.69352,188.10439 892.01651,184 1026.2422,184 c 138.3842,0 155.3335,3.35699 186.9688,37.03122 30.5318,32.49963 34.789,55.10512 34.789,184.72728 0,135.47976 -3.2483,150.94438 -39.2727,186.96878 C 1172.7903,628.66424 1157.0999,632 1024,632 890.90011,632 875.2097,628.66424 839.27272,592.72728 Z" /></svg>