<svg xmlns="https://www.w3.org/2000/svg" viewBox="0 0 448 512">
  <path
     id="path4189"
     d="M 161.38281 0 C 150.2741 0 139.60279 4.3945768 131.73047 12.150391 L 12.333984 129.69531 C 4.4616709 137.45113 -2.3684758e-015 147.96389 0 158.9082 L 0 282.22461 C 0 293.16893 4.4616709 303.68363 12.333984 311.43945 L 131.73047 429.06836 C 139.60279 436.82418 150.2741 441.21875 161.38281 441.21875 L 286.55273 441.21875 C 297.66144 441.21875 308.33277 436.82418 316.20508 429.06836 L 435.60156 311.43945 C 443.47388 303.68363 447.93555 293.16893 447.93555 282.22461 L 447.93555 158.99414 C 447.93555 148.04982 443.47388 137.53706 435.60156 129.78125 L 316.20508 12.150391 C 308.33277 4.3945768 297.66144 2.3684758e-015 286.55273 0 L 161.38281 0 z M 68.5 170.48633 C 74.005371 170.48633 79.667643 170.9113 85.486328 171.76172 C 91.305013 172.56738 97.325358 173.79899 103.54688 175.45508 L 103.54688 196.66992 C 98.041504 194.20817 92.67041 192.35091 87.433594 191.09766 C 82.196777 189.8444 77.250651 189.21875 72.595703 189.21875 C 66.418945 189.21875 61.854492 190.06868 58.900391 191.76953 C 55.946289 193.47038 54.46875 196.11068 54.46875 199.69141 C 54.46875 202.37695 55.452474 204.4821 57.421875 206.00391 C 59.436035 207.48096 63.062012 208.75586 68.298828 209.83008 L 79.310547 212.04492 C 90.455566 214.28288 98.376465 217.68457 103.07617 222.25 C 107.77588 226.81543 110.12695 233.30599 110.12695 241.7207 C 110.12695 252.7762 106.8374 261.01188 100.25781 266.42773 C 93.722982 271.79883 83.718587 274.48438 70.246094 274.48438 C 63.890299 274.48438 57.511882 273.88037 51.111328 272.67188 C 44.710775 271.46338 38.31071 269.67301 31.910156 267.30078 L 31.910156 245.48047 C 38.31071 248.88216 44.486491 251.45557 50.439453 253.20117 C 56.437174 254.90202 62.211589 255.75195 67.761719 255.75195 C 73.401367 255.75195 77.721842 254.81348 80.720703 252.93359 C 83.719564 251.05371 85.21875 248.36816 85.21875 244.87695 C 85.21875 241.74382 84.187826 239.32585 82.128906 237.625 C 80.114746 235.92415 76.065755 234.40332 69.978516 233.06055 L 59.974609 230.84375 C 49.948568 228.69531 42.608073 225.27197 37.953125 220.57227 C 33.342936 215.87256 31.037109 209.53939 31.037109 201.57227 C 31.037109 191.59098 34.259766 183.91406 40.705078 178.54297 C 47.150391 173.17188 56.415039 170.48633 68.5 170.48633 z M 272.40039 170.48633 C 288.51367 170.48633 301.13672 175.09603 310.26758 184.31641 C 319.39844 193.53678 323.96289 206.27197 323.96289 222.51953 C 323.96289 238.72233 319.39844 251.43392 310.26758 260.6543 C 301.13672 269.87467 288.51367 274.48438 272.40039 274.48438 C 256.33187 274.48438 243.71077 269.87467 234.53516 260.6543 C 225.4043 251.43392 220.83789 238.72233 220.83789 222.51953 C 220.83789 206.27197 225.4043 193.53678 234.53516 184.31641 C 243.71077 175.09603 256.33187 170.48633 272.40039 170.48633 z M 120.93555 172.29883 L 213.31836 172.29883 L 213.31836 191.83594 L 180.08594 191.83594 L 180.08594 272.53711 L 154.23633 272.53711 L 154.23633 191.83594 L 120.93555 191.83594 L 120.93555 172.29883 z M 343.43359 172.29883 L 386.33594 172.29883 C 399.09229 172.29883 408.87044 175.14176 415.67383 180.82617 C 422.52197 186.46582 425.94727 194.52246 425.94727 204.99609 C 425.94727 215.51449 422.52197 223.61637 415.67383 229.30078 C 408.87044 234.94043 399.09229 237.75977 386.33594 237.75977 L 369.28125 237.75977 L 369.28125 272.53711 L 343.43359 272.53711 L 343.43359 172.29883 z M 272.40039 189.21875 C 264.52279 189.21875 258.4139 192.12858 254.07227 197.94727 C 249.73063 203.76595 247.55859 211.95638 247.55859 222.51953 C 247.55859 233.03792 249.73063 241.20671 254.07227 247.02539 C 258.4139 252.84408 264.52279 255.75195 272.40039 255.75195 C 280.32275 255.75195 286.45524 252.84408 290.79688 247.02539 C 295.13851 241.20671 297.30859 233.03792 297.30859 222.51953 C 297.30859 211.95638 295.13851 203.76595 290.79688 197.94727 C 286.45524 192.12858 280.32275 189.21875 272.40039 189.21875 z M 369.28125 191.03125 L 369.28125 219.02734 L 383.58203 219.02734 C 388.59505 219.02734 392.46696 217.81934 395.19727 215.40234 C 397.92757 212.94059 399.29297 209.47201 399.29297 204.99609 C 399.29297 200.52018 397.92757 197.07324 395.19727 194.65625 C 392.46696 192.23926 388.59505 191.03125 383.58203 191.03125 L 369.28125 191.03125 z " />
</svg>
