<svg xmlns="https://www.w3.org/2000/svg" viewBox="0 0 448 512">
  <path
     id="path4211"
     d="M 48,0.90956072 C 21.5,0.90956072 0,22.409561 0,48.909561 L 0,400.90956 c 0,26.5 21.5,48 48,48 l 352,0 c 26.5,0 48,-21.5 48,-48 l 0,-351.999999 c 0,-26.5 -21.5,-48.00000028 -48,-48.00000028 l -352,0 z M 228.78711,33.735733 c 43.23689,0 89.38919,35.011372 89.38867,81.166017 0,61.28765 -63.81055,62.23064 -63.81055,84.8789 l 0,3.05079 c 0,7.00425 -5.47274,12.68359 -12.22461,12.68359 l -36.91601,0 C 198.47275,215.51503 193,209.83569 193,202.83144 l 0,-5.17188 c 0,-32.67191 23.87802,-45.73206 41.92188,-56.22656 15.47299,-8.99905 24.95507,-15.1201 24.95507,-27.03711 0,-15.763939 -19.38209,-26.224609 -35.05273,-26.224609 -19.9306,0 -29.39478,9.54644 -42.1543,26.128899 -4.13669,5.37619 -11.65562,6.34746 -16.93945,2.19141 L 143.75781,99.208391 c -5.23186,-4.11535 -6.38927,-11.78037 -2.63867,-17.3711 20.67533,-30.819245 47.00957,-48.101558 87.66797,-48.101558 z m -5.10352,197.345707 c 19.45637,-10e-6 35.28516,16.41984 35.28516,36.60351 0,20.18367 -15.82879,36.60352 -35.28516,36.60352 -19.45637,0 -35.28515,-16.42038 -35.28515,-36.60352 0,-20.18367 15.82878,-36.60351 35.28515,-36.60351 z m -146.804684,108.1289 294.076174,0 c 4.25636,0 7.73828,2.61437 7.73828,5.81055 l 0,11.62305 c 0,3.19618 -3.48192,5.81054 -7.73828,5.81054 l -23.2168,0 0,23.2461 23.2168,0 c 4.25636,0 7.73828,2.61436 7.73828,5.81054 l 0,11.62305 c 0,3.19618 -3.48192,5.81055 -7.73828,5.81055 l -294.076174,0 c -4.256357,0 -7.738281,-2.61437 -7.738281,-5.81055 l 0,-11.62305 c 0,-3.19618 3.481924,-5.81054 7.738281,-5.81054 l 23.216794,0 0,-23.2461 -23.216794,0 c -4.256357,0 -7.738281,-2.61435 -7.738281,-5.81054 l 0,-11.62305 c 0,-3.19618 3.481924,-5.81055 7.738281,-5.81055 z m 54.171874,23.24414 0,23.2461 77.38867,0 0,-23.2461 -77.38867,0 z m 108.34375,0 0,23.2461 77.38867,0 0,-23.2461 -77.38867,0 z" />
</svg>
