<?xml version="1.0" encoding="UTF-8" standalone="no"?>
<svg
   xmlns:dc="http://purl.org/dc/elements/1.1/"
   xmlns:cc="http://creativecommons.org/ns#"
   xmlns:rdf="http://www.w3.org/1999/02/22-rdf-syntax-ns#"
   xmlns:svg="https://www.w3.org/2000/svg"
   xmlns="https://www.w3.org/2000/svg"
   xmlns:sodipodi="http://sodipodi.sourceforge.net/DTD/sodipodi-0.dtd"
   xmlns:inkscape="http://www.inkscape.org/namespaces/inkscape"
   contentScriptType="text/ecmascript"
   contentStyleType="text/css"
   height="2048px"
   id="Layer_1"
   preserveAspectRatio="xMidYMid meet"
   version="1.1"
   viewBox="0.0 0 1536.0 2048"
   width="1536.0px"
   xml:space="preserve"
   zoomAndPan="magnify"
   sodipodi:docname="cycle-warning.svg">
     <path
     style="fill:#dfdfdf;fill-opacity:1"
     d="M 657 256 C 637.667 256 625.667 265.333 621 284 C 612.333 317.333 602.667 379.333 592 470 C 560.667 480 530.333 492.667 501 508 L 363 401 C 354.333 394.333 345.667 391 337 391 C 322.333 391 290.833 414.833 242.5 462.5 C 194.167 510.167 161.333 546 144 570 C 138 578.667 135 586.333 135 593 C 135 601 138.333 609 145 617 C 189.667 671 225.333 717 252 755 C 235.333 785.667 222.333 816.333 213 847 L 27 875 C 19.667 876.333 13.333 880.667 8 888 C 2.667 895.333 0 903 0 911 L 0 1133 C 0 1141.667 2.667 1149.5 8 1156.5 C 13.333 1163.5 20.333 1167.667 29 1169 L 212 1196 C 221.333 1228.667 235 1261.667 253 1295 C 241 1311.667 223 1335.167 199 1365.5 C 175 1395.833 158 1418 148 1432 C 142.667 1439.333 140 1447 140 1455 C 140 1463.667 142.333 1471.333 147 1478 C 173 1514 228 1570 312 1646 C 319.333 1653.333 327.667 1657 337 1657 C 347 1657 355.333 1654 362 1648 L 503 1541 C 530.333 1555 560.333 1567.333 593 1578 L 621 1762 C 621.667 1770.667 625.5 1777.833 632.5 1783.5 C 639.5 1789.167 647.667 1792 657 1792 L 879 1792 C 898.333 1792 910.333 1782.667 915 1764 C 923.667 1730.667 933.333 1668.667 944 1578 C 975.333 1568 1005.667 1555.333 1035 1540 L 1173 1648 C 1182.333 1654 1191 1657 1199 1657 C 1213.667 1657 1245 1633.333 1293 1586 C 1341 1538.667 1374 1502.667 1392 1478 C 1398 1471.333 1401 1463.667 1401 1455 C 1401 1446.333 1397.667 1438 1391 1430 C 1343 1371.333 1307.333 1325.333 1284 1292 C 1297.333 1267.333 1310.333 1237 1323 1201 L 1508 1173 C 1516 1171.667 1522.667 1167.333 1528 1160 C 1533.333 1152.667 1536 1145 1536 1137 L 1536 915 C 1536 906.333 1533.333 898.5 1528 891.5 C 1522.667 884.5 1515.667 880.333 1507 879 L 1324 851 C 1314 819 1300.333 786.333 1283 753 C 1295 736.333 1313 712.833 1337 682.5 C 1361 652.167 1378 630 1388 616 C 1393.333 608.667 1396 601 1396 593 C 1396 583.667 1393.667 576.333 1389 571 C 1365 537 1310 480.333 1224 401 C 1216 394.333 1207.667 391 1199 391 C 1189 391 1181 394 1175 400 L 1033 507 C 1005.667 493 975.667 480.667 943 470 L 915 286 C 914.333 277.333 910.5 270.167 903.5 264.5 C 896.5 258.833 888.333 256 879 256 L 657 256 z M 768 642.16992 A 377.49155 381.83051 0 0 1 1145.4922 1024 A 377.49155 381.83051 0 0 1 768 1405.8301 A 377.49155 381.83051 0 0 1 390.50781 1024 A 377.49155 381.83051 0 0 1 768 642.16992 z M 700.14062 776.51562 C 696.10786 777.58125 692.11596 778.74575 688.16602 780.01172 C 693.12908 778.81847 696.83113 777.8844 699.35156 777.25 C 699.6138 777.00415 699.87811 776.76114 700.14062 776.51562 z M 647.54492 962.80859 C 646.84834 962.90678 642.99243 969.88636 633.44141 989.8418 C 635.39083 988.51922 636.89277 987.64232 638.42578 987.03125 C 642.44024 978.22601 648.61015 962.65845 647.54492 962.80859 z M 598.4043 1019.0742 C 597.81115 1019.4306 597.21765 1019.785 596.63867 1020.166 C 594.66425 1021.4653 591.02825 1027.7572 592.61328 1026.0039 C 594.63166 1023.7712 596.526 1021.4297 598.4043 1019.0742 z M 762.48242 1087.7793 C 760.62813 1088.2628 758.60343 1088.8092 757.44141 1089.0371 C 761.87092 1089.1143 760.20168 1089.1647 762.48242 1087.7793 z M 633.50195 1131.9805 C 631.76813 1133.3442 630.03247 1134.7112 628.58984 1136.2832 C 627.08418 1137.9239 631.56069 1134.2685 633.50195 1131.9805 z "
     id="path3" /></svg>
