<?xml version="1.0" encoding="UTF-8" standalone="no"?>
<svg
   xmlns:dc="http://purl.org/dc/elements/1.1/"
   xmlns:cc="http://creativecommons.org/ns#"
   xmlns:rdf="http://www.w3.org/1999/02/22-rdf-syntax-ns#"
   xmlns:svg="https://www.w3.org/2000/svg"
   xmlns="https://www.w3.org/2000/svg"
   viewBox="0 0 136.53333 136.53333"
   height="136.53333"
   width="136.53333"
   id="svg2"
   version="1.1">
  <defs
     id="defs6" />
  <path
     id="path817" fill="currentColor"
     d="m 23.111111,113.42222 c -2.027263,-2.02727 0.973793,-5.75545 19.811963,-24.612217 L 63.446149,68.266665 42.816062,47.61621 C 22.129869,26.909593 19.752676,23.575087 24.961792,22.571903 26.394027,22.296081 32.857297,28.071708 47.61621,42.816062 L 68.266665,63.446149 88.91712,42.816062 c 20.70662,-20.686193 24.04113,-23.063386 25.04431,-17.85427 0.27582,1.432235 -5.49981,7.895505 -20.244162,22.654418 L 73.087181,68.266665 93.717268,88.91712 c 14.744352,14.75891 20.519982,21.22218 20.244162,22.65442 -1.00318,5.20912 -4.33769,2.83192 -25.04431,-17.85427 L 68.266665,73.087181 47.723327,93.61026 c -18.85677,18.83816 -22.584953,21.83922 -24.612216,19.81196 z"
     style="stroke-width:1" />
</svg>
