<?xml version="1.0" encoding="utf-8"?>
<!-- Generator: Adobe Illustrator 16.0.0, SVG Export Plug-In . SVG Version: 6.00 Build 0)  -->
<!DOCTYPE svg PUBLIC "-//W3C//DTD SVG 1.1//EN" "http://www.w3.org/Graphics/SVG/1.1/DTD/svg11.dtd">
<svg version="1.1" id="Livello_1" xmlns="https://www.w3.org/2000/svg" xmlns:xlink="http://www.w3.org/1999/xlink" x="0px" y="0px"
	 width="24px" height="24px" viewBox="0 0 24 24" xml:space="preserve">
<g>
	<rect opacity="0" fill="currentColor" width="24" height="24"/>
	<rect fill="currentColor" width="24" height="5"/>
	<rect x="1" y="7" opacity="0.5" fill="currentColor" width="4" height="4"/>
	<rect x="7" y="7" opacity="0.5" fill="currentColor" width="4" height="4"/>
	<rect x="13" y="7" opacity="0.5" fill="currentColor" width="4" height="4"/>
	<rect x="19" y="7" opacity="0.5" fill="currentColor" width="4" height="4"/>
	<path fill="currentColor" d="M3.759,17.064c0.26,0.01,0.521-0.008,0.783-0.055s0.494-0.129,0.699-0.246
		c0.205-0.115,0.371-0.277,0.498-0.482c0.125-0.205,0.189-0.457,0.189-0.756c0-0.42-0.143-0.756-0.428-1.008s-0.65-0.379-1.1-0.379
		c-0.279,0-0.521,0.057-0.727,0.168c-0.207,0.113-0.377,0.264-0.512,0.455s-0.236,0.406-0.301,0.645
		c-0.066,0.238-0.094,0.482-0.084,0.734H1.183c0.018-0.475,0.107-0.916,0.266-1.322s0.375-0.758,0.65-1.057s0.609-0.533,1.002-0.701
		c0.391-0.168,0.834-0.252,1.33-0.252c0.383,0,0.758,0.057,1.127,0.168c0.367,0.113,0.699,0.275,0.994,0.49
		c0.293,0.215,0.529,0.488,0.707,0.82c0.176,0.33,0.266,0.711,0.266,1.141c0,0.494-0.113,0.926-0.336,1.295
		c-0.225,0.369-0.574,0.637-1.051,0.805v0.027c0.561,0.113,0.996,0.391,1.309,0.834s0.469,0.982,0.469,1.617
		c0,0.467-0.092,0.883-0.279,1.252s-0.439,0.682-0.756,0.938c-0.316,0.258-0.686,0.455-1.105,0.596s-0.863,0.211-1.33,0.211
		c-0.57,0-1.066-0.082-1.492-0.246c-0.424-0.162-0.779-0.395-1.062-0.693c-0.285-0.299-0.502-0.658-0.652-1.078
		c-0.148-0.42-0.229-0.887-0.238-1.398h1.598c-0.02,0.596,0.127,1.094,0.439,1.49s0.783,0.596,1.408,0.596
		c0.531,0,0.977-0.152,1.336-0.455c0.359-0.305,0.539-0.736,0.539-1.295c0-0.383-0.074-0.688-0.223-0.91
		c-0.15-0.225-0.346-0.395-0.588-0.512c-0.244-0.117-0.518-0.189-0.82-0.217s-0.613-0.037-0.93-0.027V17.064z"/>
	<path fill="currentColor" d="M13.66,15.482c-0.038-0.4-0.18-0.725-0.428-0.973c-0.247-0.246-0.58-0.371-1.001-0.371
		c-0.289,0-0.538,0.055-0.749,0.162c-0.21,0.107-0.387,0.25-0.531,0.426c-0.146,0.178-0.262,0.381-0.351,0.609
		s-0.161,0.469-0.217,0.721s-0.096,0.502-0.119,0.75c-0.023,0.246-0.044,0.479-0.062,0.693l0.027,0.027
		c0.215-0.393,0.512-0.684,0.89-0.875s0.786-0.287,1.225-0.287c0.485,0,0.919,0.084,1.302,0.252s0.707,0.398,0.974,0.693
		c0.266,0.293,0.469,0.641,0.608,1.043c0.141,0.4,0.21,0.836,0.21,1.301c0,0.477-0.076,0.918-0.23,1.324s-0.376,0.76-0.665,1.064
		c-0.289,0.303-0.635,0.539-1.036,0.707s-0.845,0.252-1.33,0.252c-0.719,0-1.309-0.133-1.771-0.4
		c-0.462-0.266-0.826-0.629-1.093-1.092c-0.266-0.461-0.45-1.002-0.553-1.623s-0.154-1.291-0.154-2.01
		c0-0.588,0.063-1.18,0.189-1.777s0.334-1.141,0.623-1.631s0.67-0.889,1.141-1.197c0.472-0.309,1.053-0.463,1.743-0.463
		c0.393,0,0.761,0.066,1.106,0.197c0.345,0.131,0.65,0.312,0.917,0.545c0.266,0.234,0.482,0.514,0.65,0.84
		c0.168,0.328,0.262,0.691,0.28,1.092H13.66z M12.12,21.672c0.289,0,0.541-0.059,0.756-0.176s0.395-0.268,0.539-0.455
		c0.145-0.186,0.252-0.404,0.322-0.65c0.069-0.248,0.104-0.502,0.104-0.764s-0.035-0.514-0.104-0.756
		c-0.07-0.242-0.178-0.455-0.322-0.637s-0.324-0.33-0.539-0.441s-0.467-0.168-0.756-0.168c-0.29,0-0.544,0.055-0.764,0.162
		c-0.219,0.107-0.403,0.252-0.553,0.434s-0.262,0.395-0.336,0.637s-0.112,0.5-0.112,0.77c0,0.271,0.038,0.527,0.112,0.77
		c0.074,0.244,0.187,0.461,0.336,0.652s0.334,0.342,0.553,0.455C11.576,21.615,11.83,21.672,12.12,21.672z"/>
	<path fill="currentColor" d="M17.414,13.006h5.068v1.428h-3.878l-0.504,2.492l0.027,0.027c0.215-0.242,0.488-0.428,0.819-0.553
		c0.331-0.127,0.66-0.189,0.987-0.189c0.485,0,0.919,0.082,1.302,0.246c0.383,0.162,0.705,0.391,0.966,0.686
		c0.262,0.293,0.46,0.641,0.596,1.043c0.135,0.4,0.202,0.836,0.202,1.301c0,0.393-0.062,0.797-0.188,1.211
		c-0.126,0.416-0.327,0.795-0.603,1.135c-0.275,0.342-0.627,0.621-1.057,0.84s-0.942,0.33-1.54,0.33
		c-0.476,0-0.917-0.064-1.323-0.189c-0.405-0.127-0.763-0.314-1.07-0.566c-0.309-0.252-0.554-0.562-0.735-0.932
		s-0.282-0.801-0.301-1.295h1.596c0.047,0.531,0.229,0.939,0.546,1.225s0.737,0.428,1.26,0.428c0.336,0,0.621-0.057,0.854-0.168
		c0.233-0.113,0.422-0.268,0.567-0.463c0.145-0.195,0.247-0.424,0.308-0.686s0.091-0.541,0.091-0.84
		c0-0.271-0.037-0.529-0.112-0.777c-0.074-0.248-0.187-0.465-0.336-0.65c-0.149-0.188-0.343-0.336-0.581-0.449
		c-0.237-0.111-0.516-0.168-0.833-0.168c-0.336,0-0.65,0.062-0.944,0.189s-0.507,0.361-0.638,0.707h-1.596L17.414,13.006z"/>
</g>
</svg>
