<?xml version="1.0" encoding="utf-8"?>
<!-- Generator: Adobe Illustrator 16.0.0, SVG Export Plug-In . SVG Version: 6.00 Build 0)  -->
<!DOCTYPE svg PUBLIC "-//W3C//DTD SVG 1.1//EN" "http://www.w3.org/Graphics/SVG/1.1/DTD/svg11.dtd">
<svg version="1.1" id="Livello_1" xmlns="https://www.w3.org/2000/svg" xmlns:xlink="http://www.w3.org/1999/xlink" x="0px" y="0px"
	 width="24px" height="24px" viewBox="0 0 24 24" xml:space="preserve">
<g>
	<rect opacity="0" fill="currentColor" width="24" height="24"/>
	<rect fill="currentColor" width="24" height="5"/>
	<rect x="1" y="19" opacity="0.5" fill="currentColor" width="4" height="4"/>
	<rect x="1" y="13" opacity="0.5" fill="currentColor" width="4" height="4"/>
	<rect x="1" y="7" opacity="0.5" fill="currentColor" width="4" height="4"/>
	<rect x="7" y="7" opacity="0.5" fill="currentColor" width="4" height="4"/>
	<rect x="13" y="7" opacity="0.5" fill="currentColor" width="4" height="4"/>
	<rect x="19" y="7" opacity="0.5" fill="currentColor" width="4" height="4"/>
	<path fill="currentColor" d="M10.637,17.162c0.262,0.01,0.523-0.01,0.785-0.057c0.261-0.047,0.494-0.127,0.699-0.244
		s0.371-0.277,0.497-0.484c0.126-0.205,0.188-0.457,0.188-0.756c0-0.42-0.142-0.756-0.426-1.008c-0.285-0.252-0.651-0.377-1.1-0.377
		c-0.279,0-0.523,0.055-0.729,0.168c-0.205,0.111-0.375,0.264-0.51,0.455c-0.137,0.191-0.236,0.406-0.302,0.643
		c-0.065,0.238-0.093,0.484-0.084,0.736H8.062c0.019-0.477,0.106-0.918,0.266-1.324c0.159-0.404,0.376-0.758,0.651-1.057
		s0.609-0.531,1.001-0.699s0.835-0.252,1.329-0.252c0.383,0,0.759,0.055,1.128,0.168c0.368,0.111,0.7,0.275,0.993,0.49
		c0.295,0.215,0.53,0.486,0.707,0.818c0.178,0.332,0.267,0.711,0.267,1.141c0,0.496-0.112,0.928-0.336,1.295
		c-0.224,0.369-0.574,0.637-1.05,0.805v0.029c0.56,0.111,0.996,0.389,1.309,0.832s0.469,0.982,0.469,1.617
		c0,0.467-0.093,0.885-0.279,1.254c-0.188,0.369-0.439,0.682-0.756,0.938c-0.318,0.256-0.687,0.455-1.106,0.596
		c-0.42,0.139-0.863,0.209-1.33,0.209c-0.569,0-1.066-0.082-1.491-0.244c-0.424-0.164-0.779-0.395-1.063-0.693
		c-0.285-0.299-0.502-0.658-0.651-1.078s-0.229-0.887-0.238-1.4h1.596c-0.018,0.598,0.129,1.094,0.441,1.492
		c0.312,0.396,0.781,0.594,1.407,0.594c0.532,0,0.978-0.15,1.337-0.455c0.359-0.303,0.539-0.734,0.539-1.295
		c0-0.383-0.074-0.686-0.225-0.91c-0.148-0.223-0.345-0.395-0.588-0.51c-0.242-0.117-0.516-0.189-0.818-0.219
		c-0.303-0.027-0.613-0.037-0.932-0.027V17.162z"/>
	<path fill="currentColor" d="M16.922,14.727c0.336,0,0.663-0.029,0.979-0.084c0.317-0.057,0.604-0.15,0.861-0.281
		c0.256-0.131,0.477-0.299,0.658-0.504s0.301-0.457,0.357-0.756h1.301v9.801h-1.75v-6.916h-2.407V14.727z"/>
</g>
</svg>
