<?xml version="1.0" encoding="utf-8"?>
<!-- Generator: Adobe Illustrator 16.0.0, SVG Export Plug-In . SVG Version: 6.00 Build 0)  -->
<!DOCTYPE svg PUBLIC "-//W3C//DTD SVG 1.1//EN" "http://www.w3.org/Graphics/SVG/1.1/DTD/svg11.dtd">
<svg version="1.1" id="Livello_1" xmlns="https://www.w3.org/2000/svg" xmlns:xlink="http://www.w3.org/1999/xlink" x="0px" y="0px"
	 width="24px" height="24px" viewBox="0 0 24 24" xml:space="preserve">
<g>
	<rect opacity="0" fill="currentColor" width="24" height="24"/>
	<rect fill="currentColor" width="24" height="5"/>
	<rect x="1" y="19" opacity="0.5" fill="currentColor" width="4" height="4"/>
	<rect x="1" y="13" opacity="0.5" fill="currentColor" width="4" height="4"/>
	<rect x="1" y="7" opacity="0.5" fill="currentColor" width="4" height="4"/>
	<rect x="7" y="7" opacity="0.5" fill="currentColor" width="4" height="4"/>
	<rect x="13" y="7" opacity="0.5" fill="currentColor" width="4" height="4"/>
	<rect x="19" y="7" opacity="0.5" fill="currentColor" width="4" height="4"/>
	<g>
		<path fill="currentColor" d="M9.483,20.422c0.037,0.402,0.18,0.727,0.428,0.973c0.246,0.248,0.58,0.371,1,0.371
			c0.43,0,0.772-0.113,1.029-0.342c0.257-0.23,0.455-0.514,0.596-0.855c0.139-0.34,0.234-0.703,0.286-1.092
			c0.052-0.387,0.091-0.744,0.119-1.07l-0.028-0.029c-0.215,0.383-0.508,0.676-0.882,0.875c-0.373,0.201-0.784,0.303-1.231,0.303
			c-0.467,0-0.889-0.08-1.268-0.238C9.154,19.158,8.83,18.936,8.56,18.65c-0.271-0.283-0.48-0.629-0.63-1.035
			s-0.224-0.861-0.224-1.365c0-0.477,0.074-0.918,0.224-1.322c0.149-0.406,0.368-0.762,0.657-1.064s0.645-0.539,1.064-0.707
			s0.896-0.252,1.428-0.252c0.691,0,1.26,0.133,1.709,0.398c0.447,0.266,0.8,0.631,1.057,1.092c0.256,0.463,0.436,1.006,0.539,1.631
			c0.103,0.625,0.154,1.293,0.154,2.002c0,0.588-0.063,1.182-0.189,1.779c-0.126,0.596-0.334,1.141-0.623,1.631
			s-0.67,0.889-1.141,1.197c-0.472,0.307-1.053,0.461-1.744,0.461c-0.391,0-0.76-0.064-1.105-0.195s-0.65-0.312-0.917-0.547
			c-0.266-0.232-0.483-0.514-0.651-0.84s-0.261-0.689-0.279-1.092H9.483z M11.009,14.234c-0.289,0-0.541,0.053-0.756,0.16
			s-0.392,0.254-0.531,0.441c-0.141,0.188-0.245,0.402-0.315,0.645c-0.069,0.242-0.104,0.494-0.104,0.756
			c0,0.27,0.035,0.529,0.104,0.777c0.07,0.246,0.175,0.463,0.315,0.65c0.14,0.188,0.316,0.338,0.531,0.455s0.467,0.174,0.756,0.174
			c0.299,0,0.561-0.055,0.785-0.168c0.224-0.111,0.408-0.262,0.553-0.453s0.254-0.412,0.328-0.658
			c0.075-0.248,0.113-0.508,0.113-0.777c0-0.262-0.038-0.514-0.113-0.756c-0.074-0.242-0.184-0.455-0.328-0.637
			c-0.145-0.184-0.329-0.33-0.553-0.441C11.569,14.289,11.308,14.234,11.009,14.234z"/>
		<path fill="currentColor" d="M18.905,12.904c0.7,0,1.271,0.16,1.715,0.482s0.789,0.732,1.037,1.232c0.246,0.5,0.414,1.047,0.504,1.645
			c0.088,0.598,0.133,1.176,0.133,1.736s-0.045,1.139-0.133,1.736c-0.09,0.598-0.258,1.145-0.504,1.645
			c-0.248,0.5-0.594,0.91-1.037,1.232s-1.015,0.482-1.715,0.482c-0.699,0-1.271-0.16-1.715-0.482s-0.789-0.732-1.035-1.232
			c-0.248-0.5-0.416-1.047-0.504-1.645c-0.09-0.598-0.134-1.176-0.134-1.736s0.044-1.139,0.134-1.736
			c0.088-0.598,0.256-1.145,0.504-1.645c0.246-0.5,0.592-0.91,1.035-1.232S18.206,12.904,18.905,12.904z M18.905,21.766
			c0.346,0,0.635-0.1,0.868-0.301s0.418-0.471,0.554-0.812c0.135-0.34,0.23-0.738,0.287-1.197c0.055-0.457,0.084-0.941,0.084-1.455
			s-0.029-0.996-0.084-1.449c-0.057-0.453-0.152-0.852-0.287-1.197c-0.136-0.346-0.32-0.617-0.554-0.818s-0.522-0.301-0.868-0.301
			c-0.354,0-0.646,0.1-0.875,0.301s-0.41,0.473-0.545,0.818c-0.137,0.346-0.231,0.744-0.287,1.197
			c-0.057,0.453-0.084,0.936-0.084,1.449s0.027,0.998,0.084,1.455c0.056,0.459,0.15,0.857,0.287,1.197
			c0.135,0.342,0.316,0.611,0.545,0.812S18.551,21.766,18.905,21.766z"/>
	</g>
</g>
</svg>
