<?xml version="1.0" encoding="utf-8"?>
<!-- Generator: Adobe Illustrator 16.0.0, SVG Export Plug-In . SVG Version: 6.00 Build 0)  -->
<!DOCTYPE svg PUBLIC "-//W3C//DTD SVG 1.1//EN" "http://www.w3.org/Graphics/SVG/1.1/DTD/svg11.dtd">
<svg version="1.1" id="Livello_1" xmlns="https://www.w3.org/2000/svg" xmlns:xlink="http://www.w3.org/1999/xlink" x="0px" y="0px"
	 width="24px" height="24px" viewBox="0 0 24 24" xml:space="preserve">
<g>
	<rect opacity="0" fill="currentColor" width="24" height="24"/>
	<rect fill="currentColor" width="24" height="5"/>
	<rect x="1" y="19" opacity="0.5" fill="currentColor" width="4" height="4"/>
	<rect x="7" y="19" opacity="0.5" fill="currentColor" width="4" height="4"/>
	<rect x="1" y="13" opacity="0.5" fill="currentColor" width="4" height="4"/>
	<rect x="7" y="13" opacity="0.5" fill="currentColor" width="4" height="4"/>
	<rect x="1" y="7" opacity="0.5" fill="currentColor" width="4" height="4"/>
	<rect x="7" y="7" opacity="0.5" fill="currentColor" width="4" height="4"/>
	<rect x="13" y="7" opacity="0.5" fill="currentColor" width="4" height="4"/>
	<rect x="19" y="7" opacity="0.5" fill="currentColor" width="4" height="4"/>
	<path fill="currentColor" d="M13.854,13.102h6.706v1.33c-0.514,0.578-0.98,1.178-1.4,1.799s-0.786,1.279-1.1,1.975
		c-0.312,0.695-0.566,1.43-0.762,2.205c-0.197,0.775-0.327,1.605-0.393,2.492h-1.75c0.057-0.775,0.189-1.541,0.398-2.297
		c0.211-0.756,0.48-1.488,0.812-2.197c0.331-0.709,0.717-1.391,1.155-2.045c0.438-0.652,0.909-1.264,1.413-1.834h-5.081V13.102z"/>
</g>
</svg>
