<?xml version="1.0" encoding="utf-8"?>
<!-- Generator: Adobe Illustrator 16.0.0, SVG Export Plug-In . SVG Version: 6.00 Build 0)  -->
<!DOCTYPE svg PUBLIC "-//W3C//DTD SVG 1.1//EN" "http://www.w3.org/Graphics/SVG/1.1/DTD/svg11.dtd">
<svg version="1.1" id="Livello_1" xmlns="https://www.w3.org/2000/svg" xmlns:xlink="http://www.w3.org/1999/xlink" x="0px" y="0px"
	 width="24px" height="24px" viewBox="0 0 24 24" xml:space="preserve">
<g>
	<rect opacity="0" fill="currentColor" width="24" height="24"/>
	<rect fill="currentColor" width="24" height="5"/>
	<rect x="1" y="7" opacity="0.5" fill="currentColor" width="4" height="4"/>
	<rect x="7" y="7" opacity="0.5" fill="currentColor" width="4" height="4"/>
	<rect x="13" y="7" opacity="0.5" fill="currentColor" width="4" height="4"/>
	<rect x="19" y="7" opacity="0.5" fill="currentColor" width="4" height="4"/>
	<path fill="currentColor" d="M1.655,14.727c0.336,0,0.662-0.029,0.979-0.084c0.317-0.057,0.604-0.15,0.861-0.281
		s0.476-0.299,0.658-0.504c0.182-0.205,0.301-0.457,0.356-0.756h1.303v9.801h-1.75v-6.916H1.655V14.727z"/>
	<path fill="currentColor" d="M9.535,20.424c0.037,0.402,0.18,0.727,0.427,0.973c0.247,0.248,0.581,0.371,1.001,0.371
		c0.43,0,0.772-0.113,1.029-0.342c0.257-0.23,0.455-0.514,0.595-0.855c0.141-0.34,0.236-0.703,0.287-1.092
		c0.052-0.387,0.091-0.744,0.119-1.07l-0.028-0.029c-0.215,0.383-0.509,0.676-0.882,0.875c-0.373,0.201-0.784,0.303-1.231,0.303
		c-0.467,0-0.89-0.08-1.268-0.238s-0.702-0.381-0.973-0.666c-0.271-0.283-0.48-0.629-0.63-1.035s-0.225-0.861-0.225-1.365
		c0-0.477,0.075-0.918,0.225-1.322c0.149-0.406,0.368-0.762,0.658-1.064c0.289-0.303,0.644-0.539,1.063-0.707
		s0.896-0.252,1.428-0.252c0.691,0,1.261,0.133,1.708,0.398c0.448,0.266,0.801,0.631,1.058,1.092
		c0.257,0.463,0.436,1.006,0.539,1.631c0.103,0.625,0.153,1.293,0.153,2.002c0,0.588-0.062,1.182-0.188,1.779
		c-0.126,0.596-0.334,1.141-0.623,1.631s-0.67,0.889-1.141,1.197c-0.472,0.307-1.053,0.461-1.743,0.461
		c-0.393,0-0.761-0.064-1.106-0.195s-0.65-0.312-0.917-0.547c-0.266-0.232-0.482-0.514-0.65-0.84
		c-0.169-0.326-0.262-0.689-0.28-1.092H9.535z M11.062,14.236c-0.29,0-0.542,0.053-0.756,0.16c-0.215,0.107-0.393,0.254-0.532,0.441
		c-0.141,0.188-0.245,0.402-0.315,0.645c-0.069,0.242-0.104,0.494-0.104,0.756c0,0.27,0.035,0.529,0.104,0.777
		c0.07,0.246,0.175,0.463,0.315,0.65c0.14,0.188,0.317,0.338,0.532,0.455c0.214,0.117,0.466,0.174,0.756,0.174
		c0.298,0,0.56-0.055,0.784-0.168c0.224-0.111,0.408-0.262,0.553-0.453s0.254-0.412,0.329-0.658
		c0.074-0.248,0.111-0.508,0.111-0.777c0-0.262-0.037-0.514-0.111-0.756c-0.075-0.242-0.185-0.455-0.329-0.637
		c-0.145-0.184-0.329-0.33-0.553-0.441C11.621,14.291,11.359,14.236,11.062,14.236z"/>
	<path fill="currentColor" d="M18.957,12.906c0.7,0,1.272,0.16,1.716,0.482c0.442,0.322,0.788,0.732,1.035,1.232
		c0.248,0.5,0.416,1.047,0.505,1.645c0.088,0.598,0.133,1.176,0.133,1.736s-0.045,1.139-0.133,1.736
		c-0.089,0.598-0.257,1.145-0.505,1.645c-0.247,0.5-0.593,0.91-1.035,1.232c-0.443,0.322-1.016,0.482-1.716,0.482
		c-0.699,0-1.271-0.16-1.715-0.482s-0.788-0.732-1.036-1.232c-0.247-0.5-0.415-1.047-0.504-1.645s-0.133-1.176-0.133-1.736
		s0.044-1.139,0.133-1.736s0.257-1.145,0.504-1.645c0.248-0.5,0.593-0.91,1.036-1.232S18.258,12.906,18.957,12.906z M18.957,21.768
		c0.346,0,0.635-0.1,0.868-0.301s0.418-0.471,0.554-0.812c0.135-0.34,0.23-0.738,0.286-1.197c0.057-0.457,0.084-0.941,0.084-1.455
		s-0.027-0.996-0.084-1.449c-0.056-0.453-0.151-0.852-0.286-1.197c-0.136-0.346-0.32-0.617-0.554-0.818s-0.522-0.301-0.868-0.301
		c-0.354,0-0.646,0.1-0.875,0.301s-0.41,0.473-0.546,0.818c-0.135,0.346-0.23,0.744-0.287,1.197
		c-0.056,0.453-0.084,0.936-0.084,1.449s0.028,0.998,0.084,1.455c0.057,0.459,0.152,0.857,0.287,1.197
		c0.136,0.342,0.317,0.611,0.546,0.812S18.603,21.768,18.957,21.768z"/>
</g>
</svg>
