<?xml version="1.0" encoding="utf-8"?>
<!-- Generator: Adobe Illustrator 16.0.0, SVG Export Plug-In . SVG Version: 6.00 Build 0)  -->
<!DOCTYPE svg PUBLIC "-//W3C//DTD SVG 1.1//EN" "http://www.w3.org/Graphics/SVG/1.1/DTD/svg11.dtd">
<svg version="1.1" id="Livello_1" xmlns="https://www.w3.org/2000/svg" xmlns:xlink="http://www.w3.org/1999/xlink" x="0px" y="0px"
	 width="24px" height="24px" viewBox="0 0 24 24" xml:space="preserve">
<g>
	<rect opacity="0" fill="currentColor" width="24" height="24"/>
	<rect fill="currentColor" width="24" height="5"/>
	<rect x="1" y="19" opacity="0.5" fill="currentColor" width="4" height="4"/>
	<rect x="7" y="19" opacity="0.5" fill="currentColor" width="4" height="4"/>
	<rect x="1" y="13" opacity="0.5" fill="currentColor" width="4" height="4"/>
	<rect x="7" y="13" opacity="0.5" fill="currentColor" width="4" height="4"/>
	<rect x="1" y="7" opacity="0.5" fill="currentColor" width="4" height="4"/>
	<rect x="7" y="7" opacity="0.5" fill="currentColor" width="4" height="4"/>
	<rect x="13" y="7" opacity="0.5" fill="currentColor" width="4" height="4"/>
	<rect x="19" y="7" opacity="0.5" fill="currentColor" width="4" height="4"/>
	<g>
		<path fill="currentColor" d="M14.761,14.727c0.336,0,0.662-0.029,0.98-0.084c0.316-0.057,0.604-0.15,0.86-0.281
			s0.476-0.299,0.658-0.504c0.182-0.205,0.301-0.457,0.356-0.756h1.303v9.801h-1.75v-6.916h-2.408V14.727z"/>
	</g>
</g>
</svg>
