<?xml version="1.0" encoding="utf-8"?>
<!-- Generator: Adobe Illustrator 16.0.0, SVG Export Plug-In . SVG Version: 6.00 Build 0)  -->
<!DOCTYPE svg PUBLIC "-//W3C//DTD SVG 1.1//EN" "http://www.w3.org/Graphics/SVG/1.1/DTD/svg11.dtd">
<svg version="1.1" id="Livello_1" xmlns="https://www.w3.org/2000/svg" xmlns:xlink="http://www.w3.org/1999/xlink" x="0px" y="0px"
	 width="24px" height="24px" viewBox="0 0 24 24" xml:space="preserve">
<g>
	<rect opacity="0" fill="currentColor" width="24" height="24"/>
	<rect fill="currentColor" width="24" height="5"/>
	<rect x="1" y="19" opacity="0.5" fill="currentColor" width="4" height="4"/>
	<rect x="7" y="19" opacity="0.5" fill="currentColor" width="4" height="4"/>
	<rect x="1" y="13" opacity="0.5" fill="currentColor" width="4" height="4"/>
	<rect x="7" y="13" opacity="0.5" fill="currentColor" width="4" height="4"/>
	<rect x="1" y="7" opacity="0.5" fill="currentColor" width="4" height="4"/>
	<rect x="7" y="7" opacity="0.5" fill="currentColor" width="4" height="4"/>
	<rect x="13" y="7" opacity="0.5" fill="currentColor" width="4" height="4"/>
	<rect x="19" y="7" opacity="0.5" fill="currentColor" width="4" height="4"/>
	<polygon fill="currentColor" points="22,16 22,16 21.999,16 17.999,12 12.997,16.986 12.997,18.399 14,17.395 14,23 17,23 17,20 19,20 
		19,23 22,23 22,17.395 23,18.413 23,17 	"/>
</g>
</svg>
