<?xml version="1.0" encoding="UTF-8" standalone="no"?>
<svg
   xmlns:dc="http://purl.org/dc/elements/1.1/"
   xmlns:cc="http://creativecommons.org/ns#"
   xmlns:rdf="http://www.w3.org/1999/02/22-rdf-syntax-ns#"
   xmlns:svg="http://www.w3.org/2000/svg"
   xmlns="http://www.w3.org/2000/svg"
   xmlns:sodipodi="http://sodipodi.sourceforge.net/DTD/sodipodi-0.dtd"
   xmlns:inkscape="http://www.inkscape.org/namespaces/inkscape"
   width="751.83209"
   height="200.22504"
   viewBox="0 0 751.83209 200.22504"
   version="1.1"
   id="SVGRoot"
   sodipodi:docname="logo-text-alt.svg"
   inkscape:version="1.0.1 (3bc2e813f5, 2020-09-07)">
  <defs
     id="defs833" />
  <sodipodi:namedview
     id="base"
     pagecolor="#ffffff"
     bordercolor="#666666"
     borderopacity="1.0"
     inkscape:pageopacity="0.0"
     inkscape:pageshadow="2"
     inkscape:zoom="1.4"
     inkscape:cx="349.68426"
     inkscape:cy="181.52377"
     inkscape:document-units="px"
     inkscape:current-layer="layer2"
     inkscape:document-rotation="0"
     showgrid="false"
     inkscape:window-width="1920"
     inkscape:window-height="1009"
     inkscape:window-x="-8"
     inkscape:window-y="31"
     inkscape:window-maximized="1"
     fit-margin-top="0"
     fit-margin-left="0"
     fit-margin-right="0"
     fit-margin-bottom="0" />
  <metadata
     id="metadata836">
    <rdf:RDF>
      <cc:Work
         rdf:about="">
        <dc:format>image/svg+xml</dc:format>
        <dc:type
           rdf:resource="http://purl.org/dc/dcmitype/StillImage" />
        <dc:title></dc:title>
      </cc:Work>
    </rdf:RDF>
  </metadata>
  <g
     inkscape:groupmode="layer"
     id="layer2"
     inkscape:label="Logo"
     style="display:inline"
     transform="translate(-27.136087,-31.471086)">
    <path
       id="path1426"
       style="opacity:0.99;fill:#4275ad;fill-opacity:1;fill-rule:evenodd;stroke:none;stroke-width:0.347089px;stroke-linecap:butt;stroke-linejoin:miter;stroke-opacity:1"
       d="m 179.12086,209.75588 c 1.34695,-6.41289 -5.51023,-11.62206 -16.46915,-22.17681 -9.87879,-10.74202 -22.52097,-23.42568 -34.80092,-31.04802 -7.64285,-4.56563 -20.67729,-2.25634 -33.1423,-1.96981 -12.675686,1.04808 -24.664606,1.52545 -34.094473,1.34446 -6.08537,0.0585 -8.906896,1.19221 -13.453493,-1.59461 -2.511492,-2.00304 -3.164864,-4.22845 -1.474359,-6.25338 8.916584,-4.99635 38.569242,-10.78177 52.216766,-17.44692 6.889659,-4.17468 0.584737,-6.51791 21.501019,-14.94557 5.62967,-3.06821 18.8778,-3.49255 25.3712,0.1876 0,0 -4.3925,3.01733 -1.90438,4.25231 2.1072,2.14798 10.99768,-9.92935 17.20082,-2.56388 3.85636,5.80903 -1.32536,11.95327 -3.01015,13.25715 -5.38629,5.10095 -11.61768,-0.58755 -11.97912,2.75148 0.0154,6.0759 18.06357,5.99871 20.14953,-11.00594 -0.12285,-10.38061 -9.46047,-12.692 -15.17358,-9.50514 0,0 -0.78052,-0.7541 3.01013,-7.75419 3.79467,-10.403175 11.85626,-29.703531 11.85626,-29.703531 1.50047,10.792176 -2.90686,22.524253 -2.82581,30.203811 3.24576,-3.58224 14.06779,-22.387093 14.06779,-22.387093 -4.20641,13.873969 -6.33706,18.026453 -9.76761,26.264193 5.03384,-4.35304 12.42496,-9.28569 17.26225,-14.695453 -3.19044,8.157803 -9.14235,16.124623 -11.24196,21.073913 4.22699,-1.94807 7.70546,-2.92002 13.82209,-7.62915 -3.60744,7.68399 -5.37522,9.84146 -9.82903,15.19571 7.33017,-0.97838 10.14218,-2.22968 15.11214,-4.62751 -3.01293,6.95065 -4.77815,10.04672 -8.3547,14.69547 4.16765,0.18886 9.40116,0.87546 13.57636,0.43772 -2.42453,5.22938 -4.32426,7.50659 -5.4674,12.81941 5.28311,0.14814 9.10795,-0.0983 12.8392,-1.25066 -0.6959,6.35794 -0.83441,9.73919 -0.0625,12.56949 0.4388,2.86198 5.22915,2.088 6.05393,-0.30644 m -30.98876,51.81139 C 144.35765,239.33835 93.669992,238.96671 59.329009,208.87753 24.988034,178.78838 17.082435,127.82128 40.645444,88.42531 64.208452,49.029326 112.31771,32.778218 154.34371,50.018513 c 42.02598,17.240293 65.62227,62.907137 55.7659,107.925977"
       sodipodi:nodetypes="cccccccccccccccccccccccccccccccccsssc" />
    <text
       xml:space="preserve"
       style="font-style:normal;font-variant:normal;font-weight:bold;font-stretch:normal;font-size:107.284px;line-height:1.15;font-family:'DejaVu Sans';-inkscape-font-specification:'DejaVu Sans, Bold';font-variant-ligatures:normal;font-variant-caps:normal;font-variant-numeric:normal;font-variant-east-asian:normal;opacity:0.99;fill:#4175ad;fill-opacity:1;stroke:none;stroke-width:2.68209;"
       x="231.33786"
       y="106.80038"
       id="text1442"><tspan
         sodipodi:role="line"
         id="tspan1440"
         x="231.33786"
         y="106.80038"
         style="font-style:normal;font-variant:normal;font-weight:bold;font-stretch:normal;font-size:107.284px;font-family:'DejaVu Sans';-inkscape-font-specification:'DejaVu Sans, Bold';font-variant-ligatures:normal;font-variant-caps:normal;font-variant-numeric:normal;font-variant-east-asian:normal;fill:#4175ad;fill-opacity:1;stroke-width:2.68209;">atsora</tspan><tspan
         sodipodi:role="line"
         x="231.33786"
         y="230.17697"
         id="tspan1444"
         style="font-style:normal;font-variant:normal;font-weight:bold;font-stretch:normal;font-size:107.284px;font-family:'DejaVu Sans';-inkscape-font-specification:'DejaVu Sans, Bold';font-variant-ligatures:normal;font-variant-caps:normal;font-variant-numeric:normal;font-variant-east-asian:normal;fill:#4175ad;fill-opacity:1;stroke-width:2.68209;">solutions</tspan></text>
  </g>
</svg>
