<?xml version="1.0" encoding="UTF-8" standalone="no"?>
<svg
   xmlns:dc="http://purl.org/dc/elements/1.1/"
   xmlns:cc="http://creativecommons.org/ns#"
   xmlns:svg="https://www.w3.org/2000/svg"
   xmlns="https://www.w3.org/2000/svg"
   width="24px"
   height="24px"
   viewBox="0 0 180 180">
  <g transform="translate(0,-117)">
    <path
       d="m 1.9201162,207.18528 v -87.86434 h 6.74593 6.7459318 v 16.89271 16.8927 H 41.085984 66.75999 l 5.240196,-5.24896 c 2.882107,-2.88693 5.549271,-5.47218 5.927021,-5.74501 1.51735,-1.09588 3.18257,-1.63102 5.05141,-1.62334 1.36549,0.006 2.16002,0.18541 3.34926,0.75791 0.79609,0.38324 1.11229,0.67782 6.58111,6.13099 l 5.74484,5.72841 h 39.497493 39.49749 v 6.74593 6.74593 H 138.4868 99.324798 l -5.745821,5.72258 c -3.48232,3.46825 -5.99878,5.88674 -6.38797,6.1393 -1.50716,0.97803 -2.95835,1.40697 -4.76015,1.40697 -1.38456,0 -2.17555,-0.17477 -3.35068,-0.74035 -0.79796,-0.38405 -1.11476,-0.68023 -6.915491,-6.4655 l -6.079222,-6.063 H 40.748721 15.411978 v 16.8927 16.8927 h 59.45636 59.456352 l 5.35474,-5.34088 c 5.45773,-5.44358 6.08192,-5.99321 7.49459,-6.59925 1.46933,-0.63035 3.66867,-0.83739 5.16361,-0.4861 0.39862,0.0937 1.10109,0.35246 1.56104,0.57508 0.7939,0.38426 1.1274,0.69474 6.58209,6.12796 l 5.74582,5.72319 h 5.71111 5.71112 v 6.74592 6.74593 h -5.38044 -5.38045 l -5.51897,5.5279 c -3.03544,3.04034 -5.79494,5.74302 -6.13224,6.00594 -1.22891,0.95795 -2.94729,1.63232 -4.57162,1.79413 -1.40231,0.1397 -3.25958,-0.28011 -4.46012,-1.00814 -0.41052,-0.24894 -2.58418,-2.34694 -6.57484,-6.34596 l -5.96158,-5.97408 -59.100403,0.028 -59.100418,0.028 v 16.8927 16.8927 l 5.349543,0.029 5.349543,0.029 5.466246,-5.45453 c 3.693979,-3.68607 5.691292,-5.59826 6.160359,-5.89779 2.554782,-1.63144 5.923031,-1.78859 8.381132,-0.39104 0.314144,0.17861 2.747835,2.51814 6.258852,6.0167 l 5.744841,5.72447 h 59.735285 59.73528 v 6.74593 6.74593 h -59.4594 -59.459404 l -5.295952,5.30805 c -2.912774,2.91943 -5.672274,5.61177 -6.132224,5.983 -1.672269,1.34965 -3.307772,1.92204 -5.463646,1.91215 -1.19955,-0.005 -1.519317,-0.0478 -2.294554,-0.30369 -0.495422,-0.16351 -1.197891,-0.49233 -1.561042,-0.7307 -0.410387,-0.26938 -2.87488,-2.6541 -6.511917,-6.30111 l -5.851645,-5.8677 h -5.103523 -5.103525 v 16.8927 16.8927 h -6.7459318 -6.74593 z" />
  </g>
</svg>
